<?xml version="1.0" encoding="UTF-8" standalone="no"?>
<svg width="44px" height="30px" viewBox="0 0 44 30" version="1.1" xmlns="http://www.w3.org/2000/svg" xmlns:xlink="http://www.w3.org/1999/xlink">
    <!-- Generator: Sketch 47.1 (45422) - http://www.bohemiancoding.com/sketch -->
    <title>Group@3x</title>
    <desc>Created with Sketch.</desc>
    <defs></defs>
    <g id="Page-2" stroke="none" stroke-width="1" fill="none" fill-rule="evenodd">
        <g id="Desktop" transform="translate(-98.000000, -10.000000)">
            <g id="Group" transform="translate(97.000000, 11.000000)">
                <polygon id="Star" fill="#455A64" points="8.85826772 8.34069477 6.88737193 9.54878049 7.79420946 7.754737 5.66929134 6.70733154 8.20064355 6.8066374 8.85826772 4.95121951 9.51589189 6.8066374 12.0472441 6.70733154 9.92232598 7.754737 10.8291635 9.54878049"></polygon>
                <path d="M19.0287272,13.0627986 L19.0287272,5.56895727 L15.1349831,5.56895727 L15.1349831,12.2460264 C16.4058855,12.5375838 17.7067321,12.8098211 19.0287272,13.0627986 Z" id="Combined-Shape" fill="#455A64"></path>
                <path d="M14.6617995,4.77339194 L19.346161,4.77339194 L19.346161,4.77339194 C19.4919952,4.77339194 19.6102172,4.89161392 19.6102172,5.03744812 C19.6102172,5.08446631 19.5976629,5.13063177 19.5738513,5.17117461 L19.4422648,5.39522132 L19.4422648,5.39522132 C19.379051,5.50285277 19.2635642,5.56895727 19.1387423,5.56895727 L14.8692182,5.56895727 L14.8692182,5.56895727 C14.7443963,5.56895727 14.6289095,5.50285277 14.5656957,5.39522132 L14.4341092,5.17117461 L14.4341092,5.17117461 C14.3602541,5.0454247 14.4023232,4.88361287 14.5280731,4.80975778 C14.5686159,4.78594627 14.6147814,4.77339194 14.6617995,4.77339194 Z" id="Rectangle-Copy" fill="#455A64"></path>
                <path d="M25.8817167,14.1822747 L25.8817167,5.56895727 L21.9879727,5.56895727 L21.9879727,13.5916676 C23.2750855,13.8060263 24.57555,14.0028779 25.8817167,14.1822747 Z" id="Combined-Shape" fill="#455A64"></path>
                <path d="M21.5147891,4.77339194 L26.1991505,4.77339194 L26.1991505,4.77339194 C26.3449847,4.77339194 26.4632067,4.89161392 26.4632067,5.03744812 C26.4632067,5.08446631 26.4506524,5.13063177 26.4268409,5.17117461 L26.2952544,5.39522132 L26.2952544,5.39522132 C26.2320406,5.50285277 26.1165538,5.56895727 25.9917318,5.56895727 L21.7222078,5.56895727 L21.7222078,5.56895727 C21.5973858,5.56895727 21.4818991,5.50285277 21.4186852,5.39522132 L21.2870987,5.17117461 L21.2870987,5.17117461 C21.2132436,5.0454247 21.2553127,4.88361287 21.3810626,4.80975778 C21.4216054,4.78594627 21.4677709,4.77339194 21.5147891,4.77339194 Z" id="Rectangle-Copy-3" fill="#455A64"></path>
                <path d="M32.7347062,14.9625893 L32.7347062,5.56895727 L28.8409622,5.56895727 L28.8409622,14.5581186 C30.1414305,14.7100767 31.4418375,14.8448831 32.7347062,14.9625893 Z" id="Combined-Shape" fill="#455A64"></path>
                <path d="M28.3677786,4.77339194 L33.0521401,4.77339194 L33.0521401,4.77339194 C33.1979743,4.77339194 33.3161962,4.89161392 33.3161962,5.03744812 C33.3161962,5.08446631 33.3036419,5.13063177 33.2798304,5.17117461 L33.1482439,5.39522132 L33.1482439,5.39522132 C33.0850301,5.50285277 32.9695433,5.56895727 32.8447214,5.56895727 L28.5751973,5.56895727 L28.5751973,5.56895727 C28.4503754,5.56895727 28.3348886,5.50285277 28.2716748,5.39522132 L28.1400883,5.17117461 L28.1400883,5.17117461 C28.0662332,5.0454247 28.1083022,4.88361287 28.2340521,4.80975778 C28.274595,4.78594627 28.3207604,4.77339194 28.3677786,4.77339194 Z" id="Rectangle-Copy-3" fill="#455A64"></path>
                <path d="M39.5876958,15.43176 L39.5876958,5.56895727 L35.6939517,5.56895727 L35.6939517,15.2033487 C37.0086593,15.2975532 38.3092943,15.3736716 39.5876958,15.43176 Z" id="Combined-Shape" fill="#455A64"></path>
                <path d="M35.2207681,4.77339194 L39.9051296,4.77339194 L39.9051296,4.77339194 C40.0509638,4.77339194 40.1691858,4.89161392 40.1691858,5.03744812 C40.1691858,5.08446631 40.1566314,5.13063177 40.1328199,5.17117461 L40.0012334,5.39522132 L40.0012334,5.39522132 C39.9380196,5.50285277 39.8225328,5.56895727 39.6977109,5.56895727 L35.4281868,5.56895727 L35.4281868,5.56895727 C35.3033649,5.56895727 35.1878781,5.50285277 35.1246643,5.39522132 L34.9930778,5.17117461 L34.9930778,5.17117461 C34.9192227,5.0454247 34.9612917,4.88361287 35.0870417,4.80975778 C35.1275845,4.78594627 35.17375,4.77339194 35.2207681,4.77339194 Z" id="Rectangle-Copy-3" fill="#455A64"></path>
                <rect id="Rectangle" fill="#455A64" x="14.0447348" y="3.50048743" width="26.4774595" height="1" rx="0.5"></rect>
                <polygon id="Triangle" fill="#455A64" points="27.3613394 0.795565324 39.7434455 3.1822613 14.9792334 3.1822613"></polygon>
                <polyline id="Path-2" stroke="#455A64" stroke-width="1.75999989" stroke-linecap="round" points="13.1102362 2.87079436 27.3570046 0 41.3449759 2.87079436"></polyline>
                <path d="M1.06299213,8.84146341 C14.135734,19.9800038 34.8627162,23.4968162 41.0564156,24.0487805 C42.160775,22.0487877 42.9067267,20.5531024 44.6456693,17.2172389 C30.035984,17.0442611 10.7726589,14.2847005 1.06299213,8.84146341 Z" id="Path-3" fill="#455A64"></path>
                <path d="M1.06299213,15.2073171 C10.0246829,23.2736342 26.8318171,24.7764776 30.6515827,25.1097561 C31.18171,23.852419 31.6211919,22.4229735 32.2440945,20.2063979 C22.7354133,20.4885157 7.05111788,18.4939676 1.06299213,15.2073171 Z" id="Path-3-Copy" fill="#455A64" transform="translate(16.653543, 20.158537) rotate(15.000000) translate(-16.653543, -20.158537) "></path>
            </g>
        </g>
    </g>
</svg>